<svg width="171" height="115" viewBox="0 0 171 115" fill="none" xmlns="http://www.w3.org/2000/svg">
<circle cx="1.5" cy="1.5" r="1.5" fill="#C4C4C4"/>
<circle cx="1.5" cy="9.5" r="1.5" fill="#C4C4C4"/>
<circle cx="1.5" cy="17.5" r="1.5" fill="#C4C4C4"/>
<circle cx="1.5" cy="25.5" r="1.5" fill="#C4C4C4"/>
<circle cx="1.5" cy="33.5" r="1.5" fill="#C4C4C4"/>
<circle cx="1.5" cy="41.5" r="1.5" fill="#C4C4C4"/>
<circle cx="1.5" cy="49.5" r="1.5" fill="#C4C4C4"/>
<circle cx="1.5" cy="57.5" r="1.5" fill="#C4C4C4"/>
<circle cx="1.5" cy="65.5" r="1.5" fill="#C4C4C4"/>
<circle cx="1.5" cy="73.5" r="1.5" fill="#C4C4C4"/>
<circle cx="1.5" cy="81.5" r="1.5" fill="#C4C4C4"/>
<circle cx="1.5" cy="89.5" r="1.5" fill="#C4C4C4"/>
<circle cx="1.5" cy="97.5" r="1.5" fill="#C4C4C4"/>
<circle cx="1.5" cy="105.5" r="1.5" fill="#C4C4C4"/>
<circle cx="1.5" cy="113.5" r="1.5" fill="#C4C4C4"/>
<circle cx="8.5" cy="1.5" r="1.5" fill="#C4C4C4"/>
<circle cx="8.5" cy="9.5" r="1.5" fill="#C4C4C4"/>
<circle cx="8.5" cy="17.5" r="1.5" fill="#C4C4C4"/>
<circle cx="8.5" cy="25.5" r="1.5" fill="#C4C4C4"/>
<circle cx="8.5" cy="33.5" r="1.5" fill="#C4C4C4"/>
<circle cx="8.5" cy="41.5" r="1.5" fill="#C4C4C4"/>
<circle cx="8.5" cy="49.5" r="1.5" fill="#C4C4C4"/>
<circle cx="8.5" cy="57.5" r="1.5" fill="#C4C4C4"/>
<circle cx="8.5" cy="65.5" r="1.5" fill="#C4C4C4"/>
<circle cx="8.5" cy="73.5" r="1.5" fill="#C4C4C4"/>
<circle cx="8.5" cy="81.5" r="1.5" fill="#C4C4C4"/>
<circle cx="8.5" cy="89.5" r="1.5" fill="#C4C4C4"/>
<circle cx="8.5" cy="97.5" r="1.5" fill="#C4C4C4"/>
<circle cx="8.5" cy="105.5" r="1.5" fill="#C4C4C4"/>
<circle cx="8.5" cy="113.5" r="1.5" fill="#C4C4C4"/>
<circle cx="15.5" cy="1.5" r="1.5" fill="#C4C4C4"/>
<circle cx="15.5" cy="9.5" r="1.5" fill="#C4C4C4"/>
<circle cx="15.5" cy="17.5" r="1.5" fill="#C4C4C4"/>
<circle cx="15.5" cy="25.5" r="1.5" fill="#C4C4C4"/>
<circle cx="15.5" cy="33.5" r="1.5" fill="#C4C4C4"/>
<circle cx="15.5" cy="41.5" r="1.5" fill="#C4C4C4"/>
<circle cx="15.5" cy="49.5" r="1.5" fill="#C4C4C4"/>
<circle cx="15.5" cy="57.5" r="1.5" fill="#C4C4C4"/>
<circle cx="15.5" cy="65.5" r="1.5" fill="#C4C4C4"/>
<circle cx="15.5" cy="73.5" r="1.5" fill="#C4C4C4"/>
<circle cx="15.5" cy="81.5" r="1.5" fill="#C4C4C4"/>
<circle cx="15.5" cy="89.5" r="1.5" fill="#C4C4C4"/>
<circle cx="15.5" cy="97.5" r="1.5" fill="#C4C4C4"/>
<circle cx="15.5" cy="105.5" r="1.5" fill="#C4C4C4"/>
<circle cx="15.5" cy="113.5" r="1.5" fill="#C4C4C4"/>
<circle cx="22.5" cy="1.5" r="1.5" fill="#C4C4C4"/>
<circle cx="22.5" cy="9.5" r="1.5" fill="#C4C4C4"/>
<circle cx="22.5" cy="17.5" r="1.5" fill="#C4C4C4"/>
<circle cx="22.5" cy="25.5" r="1.5" fill="#C4C4C4"/>
<circle cx="22.5" cy="33.5" r="1.5" fill="#C4C4C4"/>
<circle cx="22.5" cy="41.5" r="1.5" fill="#C4C4C4"/>
<circle cx="22.5" cy="49.5" r="1.5" fill="#C4C4C4"/>
<circle cx="22.5" cy="57.5" r="1.5" fill="#C4C4C4"/>
<circle cx="22.5" cy="65.5" r="1.5" fill="#C4C4C4"/>
<circle cx="22.5" cy="73.5" r="1.5" fill="#C4C4C4"/>
<circle cx="22.5" cy="81.5" r="1.5" fill="#C4C4C4"/>
<circle cx="22.5" cy="89.5" r="1.5" fill="#C4C4C4"/>
<circle cx="22.5" cy="97.5" r="1.5" fill="#C4C4C4"/>
<circle cx="22.5" cy="105.5" r="1.5" fill="#C4C4C4"/>
<circle cx="22.5" cy="113.5" r="1.5" fill="#C4C4C4"/>
<circle cx="29.5" cy="1.5" r="1.5" fill="#C4C4C4"/>
<circle cx="29.5" cy="9.5" r="1.5" fill="#C4C4C4"/>
<circle cx="29.5" cy="17.5" r="1.5" fill="#C4C4C4"/>
<circle cx="29.5" cy="25.5" r="1.5" fill="#C4C4C4"/>
<circle cx="29.5" cy="33.5" r="1.5" fill="#C4C4C4"/>
<circle cx="29.5" cy="41.5" r="1.5" fill="#C4C4C4"/>
<circle cx="29.5" cy="49.5" r="1.5" fill="#C4C4C4"/>
<circle cx="29.5" cy="57.5" r="1.5" fill="#C4C4C4"/>
<circle cx="29.5" cy="65.5" r="1.5" fill="#C4C4C4"/>
<circle cx="29.5" cy="73.5" r="1.5" fill="#C4C4C4"/>
<circle cx="29.5" cy="81.5" r="1.5" fill="#C4C4C4"/>
<circle cx="29.5" cy="89.5" r="1.5" fill="#C4C4C4"/>
<circle cx="29.5" cy="97.5" r="1.5" fill="#C4C4C4"/>
<circle cx="29.5" cy="105.5" r="1.5" fill="#C4C4C4"/>
<circle cx="29.5" cy="113.5" r="1.5" fill="#C4C4C4"/>
<circle cx="36.5" cy="1.5" r="1.5" fill="#C4C4C4"/>
<circle cx="36.5" cy="9.5" r="1.5" fill="#C4C4C4"/>
<circle cx="36.5" cy="17.5" r="1.5" fill="#C4C4C4"/>
<circle cx="36.5" cy="25.5" r="1.5" fill="#C4C4C4"/>
<circle cx="36.5" cy="33.5" r="1.5" fill="#C4C4C4"/>
<circle cx="36.5" cy="41.5" r="1.5" fill="#C4C4C4"/>
<circle cx="36.5" cy="49.5" r="1.5" fill="#C4C4C4"/>
<circle cx="36.5" cy="57.5" r="1.5" fill="#C4C4C4"/>
<circle cx="36.5" cy="65.5" r="1.5" fill="#C4C4C4"/>
<circle cx="36.5" cy="73.5" r="1.5" fill="#C4C4C4"/>
<circle cx="36.5" cy="81.5" r="1.5" fill="#C4C4C4"/>
<circle cx="36.5" cy="89.5" r="1.5" fill="#C4C4C4"/>
<circle cx="36.5" cy="97.5" r="1.5" fill="#C4C4C4"/>
<circle cx="36.5" cy="105.5" r="1.5" fill="#C4C4C4"/>
<circle cx="36.5" cy="113.5" r="1.5" fill="#C4C4C4"/>
<circle cx="43.5" cy="1.5" r="1.5" fill="#C4C4C4"/>
<circle cx="43.5" cy="9.5" r="1.5" fill="#C4C4C4"/>
<circle cx="43.5" cy="17.5" r="1.5" fill="#C4C4C4"/>
<circle cx="43.5" cy="25.5" r="1.5" fill="#C4C4C4"/>
<circle cx="43.5" cy="33.5" r="1.5" fill="#C4C4C4"/>
<circle cx="43.5" cy="41.5" r="1.5" fill="#C4C4C4"/>
<circle cx="43.5" cy="49.5" r="1.5" fill="#C4C4C4"/>
<circle cx="43.5" cy="57.5" r="1.5" fill="#C4C4C4"/>
<circle cx="43.5" cy="65.5" r="1.5" fill="#C4C4C4"/>
<circle cx="43.5" cy="73.5" r="1.5" fill="#C4C4C4"/>
<circle cx="43.5" cy="81.5" r="1.5" fill="#C4C4C4"/>
<circle cx="43.5" cy="89.5" r="1.5" fill="#C4C4C4"/>
<circle cx="43.5" cy="97.5" r="1.5" fill="#C4C4C4"/>
<circle cx="43.5" cy="105.5" r="1.5" fill="#C4C4C4"/>
<circle cx="43.5" cy="113.5" r="1.5" fill="#C4C4C4"/>
<circle cx="50.5" cy="1.5" r="1.5" fill="#C4C4C4"/>
<circle cx="50.5" cy="9.5" r="1.5" fill="#C4C4C4"/>
<circle cx="50.5" cy="17.5" r="1.5" fill="#C4C4C4"/>
<circle cx="50.5" cy="25.5" r="1.5" fill="#C4C4C4"/>
<circle cx="50.5" cy="33.5" r="1.5" fill="#C4C4C4"/>
<circle cx="50.5" cy="41.5" r="1.5" fill="#C4C4C4"/>
<circle cx="50.5" cy="49.5" r="1.5" fill="#C4C4C4"/>
<circle cx="50.5" cy="57.5" r="1.5" fill="#C4C4C4"/>
<circle cx="50.5" cy="65.5" r="1.5" fill="#C4C4C4"/>
<circle cx="50.5" cy="73.5" r="1.5" fill="#C4C4C4"/>
<circle cx="50.5" cy="81.5" r="1.5" fill="#C4C4C4"/>
<circle cx="50.5" cy="89.5" r="1.5" fill="#C4C4C4"/>
<circle cx="50.5" cy="97.5" r="1.5" fill="#C4C4C4"/>
<circle cx="50.5" cy="105.5" r="1.5" fill="#C4C4C4"/>
<circle cx="50.5" cy="113.5" r="1.5" fill="#C4C4C4"/>
<circle cx="57.5" cy="1.5" r="1.5" fill="#C4C4C4"/>
<circle cx="57.5" cy="9.5" r="1.5" fill="#C4C4C4"/>
<circle cx="57.5" cy="17.5" r="1.5" fill="#C4C4C4"/>
<circle cx="57.5" cy="25.5" r="1.5" fill="#C4C4C4"/>
<circle cx="57.5" cy="33.5" r="1.5" fill="#C4C4C4"/>
<circle cx="57.5" cy="41.5" r="1.5" fill="#C4C4C4"/>
<circle cx="57.5" cy="49.5" r="1.5" fill="#C4C4C4"/>
<circle cx="57.5" cy="57.5" r="1.5" fill="#C4C4C4"/>
<circle cx="57.5" cy="65.5" r="1.5" fill="#C4C4C4"/>
<circle cx="57.5" cy="73.5" r="1.5" fill="#C4C4C4"/>
<circle cx="57.5" cy="81.5" r="1.5" fill="#C4C4C4"/>
<circle cx="57.5" cy="89.5" r="1.5" fill="#C4C4C4"/>
<circle cx="57.5" cy="97.5" r="1.5" fill="#C4C4C4"/>
<circle cx="57.5" cy="105.5" r="1.5" fill="#C4C4C4"/>
<circle cx="57.5" cy="113.5" r="1.5" fill="#C4C4C4"/>
<circle cx="64.5" cy="1.5" r="1.5" fill="#C4C4C4"/>
<circle cx="64.5" cy="9.5" r="1.5" fill="#C4C4C4"/>
<circle cx="64.5" cy="17.5" r="1.5" fill="#C4C4C4"/>
<circle cx="64.5" cy="25.5" r="1.5" fill="#C4C4C4"/>
<circle cx="64.5" cy="33.5" r="1.5" fill="#C4C4C4"/>
<circle cx="64.5" cy="41.5" r="1.5" fill="#C4C4C4"/>
<circle cx="64.5" cy="49.5" r="1.5" fill="#C4C4C4"/>
<circle cx="64.5" cy="57.5" r="1.5" fill="#C4C4C4"/>
<circle cx="64.5" cy="65.5" r="1.5" fill="#C4C4C4"/>
<circle cx="64.5" cy="73.5" r="1.5" fill="#C4C4C4"/>
<circle cx="64.5" cy="81.5" r="1.5" fill="#C4C4C4"/>
<circle cx="64.5" cy="89.5" r="1.5" fill="#C4C4C4"/>
<circle cx="64.5" cy="97.5" r="1.5" fill="#C4C4C4"/>
<circle cx="64.5" cy="105.5" r="1.5" fill="#C4C4C4"/>
<circle cx="64.5" cy="113.5" r="1.5" fill="#C4C4C4"/>
<circle cx="71.5" cy="1.5" r="1.5" fill="#C4C4C4"/>
<circle cx="71.5" cy="9.5" r="1.5" fill="#C4C4C4"/>
<circle cx="71.5" cy="17.5" r="1.5" fill="#C4C4C4"/>
<circle cx="71.5" cy="25.5" r="1.5" fill="#C4C4C4"/>
<circle cx="71.5" cy="33.5" r="1.5" fill="#C4C4C4"/>
<circle cx="71.5" cy="41.5" r="1.5" fill="#C4C4C4"/>
<circle cx="71.5" cy="49.5" r="1.5" fill="#C4C4C4"/>
<circle cx="71.5" cy="57.5" r="1.5" fill="#C4C4C4"/>
<circle cx="71.5" cy="65.5" r="1.5" fill="#C4C4C4"/>
<circle cx="71.5" cy="73.5" r="1.5" fill="#C4C4C4"/>
<circle cx="71.5" cy="81.5" r="1.5" fill="#C4C4C4"/>
<circle cx="71.5" cy="89.5" r="1.5" fill="#C4C4C4"/>
<circle cx="71.5" cy="97.5" r="1.5" fill="#C4C4C4"/>
<circle cx="71.5" cy="105.5" r="1.5" fill="#C4C4C4"/>
<circle cx="71.5" cy="113.5" r="1.5" fill="#C4C4C4"/>
<circle cx="78.5" cy="1.5" r="1.5" fill="#C4C4C4"/>
<circle cx="78.5" cy="9.5" r="1.5" fill="#C4C4C4"/>
<circle cx="78.5" cy="17.5" r="1.5" fill="#C4C4C4"/>
<circle cx="78.5" cy="25.5" r="1.5" fill="#C4C4C4"/>
<circle cx="78.5" cy="33.5" r="1.5" fill="#C4C4C4"/>
<circle cx="78.5" cy="41.5" r="1.5" fill="#C4C4C4"/>
<circle cx="78.5" cy="49.5" r="1.5" fill="#C4C4C4"/>
<circle cx="78.5" cy="57.5" r="1.5" fill="#C4C4C4"/>
<circle cx="78.5" cy="65.5" r="1.5" fill="#C4C4C4"/>
<circle cx="78.5" cy="73.5" r="1.5" fill="#C4C4C4"/>
<circle cx="78.5" cy="81.5" r="1.5" fill="#C4C4C4"/>
<circle cx="78.5" cy="89.5" r="1.5" fill="#C4C4C4"/>
<circle cx="78.5" cy="97.5" r="1.5" fill="#C4C4C4"/>
<circle cx="78.5" cy="105.5" r="1.5" fill="#C4C4C4"/>
<circle cx="78.5" cy="113.5" r="1.5" fill="#C4C4C4"/>
<circle cx="85.5" cy="1.5" r="1.5" fill="#C4C4C4"/>
<circle cx="85.5" cy="9.5" r="1.5" fill="#C4C4C4"/>
<circle cx="85.5" cy="17.5" r="1.5" fill="#C4C4C4"/>
<circle cx="85.5" cy="25.5" r="1.5" fill="#C4C4C4"/>
<circle cx="85.5" cy="33.5" r="1.5" fill="#C4C4C4"/>
<circle cx="85.5" cy="41.5" r="1.5" fill="#C4C4C4"/>
<circle cx="85.5" cy="49.5" r="1.5" fill="#C4C4C4"/>
<circle cx="85.5" cy="57.5" r="1.5" fill="#C4C4C4"/>
<circle cx="85.5" cy="65.5" r="1.5" fill="#C4C4C4"/>
<circle cx="85.5" cy="73.5" r="1.5" fill="#C4C4C4"/>
<circle cx="85.5" cy="81.5" r="1.5" fill="#C4C4C4"/>
<circle cx="85.5" cy="89.5" r="1.5" fill="#C4C4C4"/>
<circle cx="85.5" cy="97.5" r="1.5" fill="#C4C4C4"/>
<circle cx="85.5" cy="105.5" r="1.5" fill="#C4C4C4"/>
<circle cx="85.5" cy="113.5" r="1.5" fill="#C4C4C4"/>
<circle cx="92.5" cy="1.5" r="1.5" fill="#C4C4C4"/>
<circle cx="92.5" cy="9.5" r="1.5" fill="#C4C4C4"/>
<circle cx="92.5" cy="17.5" r="1.5" fill="#C4C4C4"/>
<circle cx="92.5" cy="25.5" r="1.5" fill="#C4C4C4"/>
<circle cx="92.5" cy="33.5" r="1.5" fill="#C4C4C4"/>
<circle cx="92.5" cy="41.5" r="1.5" fill="#C4C4C4"/>
<circle cx="92.5" cy="49.5" r="1.5" fill="#C4C4C4"/>
<circle cx="92.5" cy="57.5" r="1.5" fill="#C4C4C4"/>
<circle cx="92.5" cy="65.5" r="1.5" fill="#C4C4C4"/>
<circle cx="92.5" cy="73.5" r="1.5" fill="#C4C4C4"/>
<circle cx="92.5" cy="81.5" r="1.5" fill="#C4C4C4"/>
<circle cx="92.5" cy="89.5" r="1.5" fill="#C4C4C4"/>
<circle cx="92.5" cy="97.5" r="1.5" fill="#C4C4C4"/>
<circle cx="92.5" cy="105.5" r="1.5" fill="#C4C4C4"/>
<circle cx="92.5" cy="113.5" r="1.5" fill="#C4C4C4"/>
<circle cx="99.5" cy="1.5" r="1.5" fill="#C4C4C4"/>
<circle cx="99.5" cy="9.5" r="1.5" fill="#C4C4C4"/>
<circle cx="99.5" cy="17.5" r="1.5" fill="#C4C4C4"/>
<circle cx="99.5" cy="25.5" r="1.5" fill="#C4C4C4"/>
<circle cx="99.5" cy="33.5" r="1.5" fill="#C4C4C4"/>
<circle cx="99.5" cy="41.5" r="1.5" fill="#C4C4C4"/>
<circle cx="99.5" cy="49.5" r="1.5" fill="#C4C4C4"/>
<circle cx="99.5" cy="57.5" r="1.5" fill="#C4C4C4"/>
<circle cx="99.5" cy="65.5" r="1.5" fill="#C4C4C4"/>
<circle cx="99.5" cy="73.5" r="1.5" fill="#C4C4C4"/>
<circle cx="99.5" cy="81.5" r="1.5" fill="#C4C4C4"/>
<circle cx="99.5" cy="89.5" r="1.5" fill="#C4C4C4"/>
<circle cx="99.5" cy="97.5" r="1.5" fill="#C4C4C4"/>
<circle cx="99.5" cy="105.5" r="1.5" fill="#C4C4C4"/>
<circle cx="99.5" cy="113.5" r="1.5" fill="#C4C4C4"/>
<circle cx="106.5" cy="1.5" r="1.5" fill="#C4C4C4"/>
<circle cx="106.5" cy="9.5" r="1.5" fill="#C4C4C4"/>
<circle cx="106.5" cy="17.5" r="1.5" fill="#C4C4C4"/>
<circle cx="106.5" cy="25.5" r="1.5" fill="#C4C4C4"/>
<circle cx="106.5" cy="33.5" r="1.5" fill="#C4C4C4"/>
<circle cx="106.5" cy="41.5" r="1.5" fill="#C4C4C4"/>
<circle cx="106.5" cy="49.5" r="1.5" fill="#C4C4C4"/>
<circle cx="106.5" cy="57.5" r="1.5" fill="#C4C4C4"/>
<circle cx="106.5" cy="65.5" r="1.5" fill="#C4C4C4"/>
<circle cx="106.5" cy="73.5" r="1.5" fill="#C4C4C4"/>
<circle cx="106.5" cy="81.5" r="1.5" fill="#C4C4C4"/>
<circle cx="106.5" cy="89.5" r="1.5" fill="#C4C4C4"/>
<circle cx="106.5" cy="97.5" r="1.5" fill="#C4C4C4"/>
<circle cx="106.5" cy="105.5" r="1.5" fill="#C4C4C4"/>
<circle cx="106.5" cy="113.5" r="1.5" fill="#C4C4C4"/>
<circle cx="113.5" cy="1.5" r="1.5" fill="#C4C4C4"/>
<circle cx="113.5" cy="9.5" r="1.5" fill="#C4C4C4"/>
<circle cx="113.5" cy="17.5" r="1.5" fill="#C4C4C4"/>
<circle cx="113.5" cy="25.5" r="1.5" fill="#C4C4C4"/>
<circle cx="113.5" cy="33.5" r="1.5" fill="#C4C4C4"/>
<circle cx="113.5" cy="41.5" r="1.5" fill="#C4C4C4"/>
<circle cx="113.5" cy="49.5" r="1.5" fill="#C4C4C4"/>
<circle cx="113.5" cy="57.5" r="1.5" fill="#C4C4C4"/>
<circle cx="113.5" cy="65.5" r="1.5" fill="#C4C4C4"/>
<circle cx="113.5" cy="73.5" r="1.5" fill="#C4C4C4"/>
<circle cx="113.5" cy="81.5" r="1.5" fill="#C4C4C4"/>
<circle cx="113.5" cy="89.5" r="1.5" fill="#C4C4C4"/>
<circle cx="113.5" cy="97.5" r="1.5" fill="#C4C4C4"/>
<circle cx="113.5" cy="105.5" r="1.5" fill="#C4C4C4"/>
<circle cx="113.5" cy="113.5" r="1.5" fill="#C4C4C4"/>
<circle cx="120.5" cy="1.5" r="1.5" fill="#C4C4C4"/>
<circle cx="120.5" cy="9.5" r="1.5" fill="#C4C4C4"/>
<circle cx="120.5" cy="17.5" r="1.5" fill="#C4C4C4"/>
<circle cx="120.5" cy="25.5" r="1.5" fill="#C4C4C4"/>
<circle cx="120.5" cy="33.5" r="1.5" fill="#C4C4C4"/>
<circle cx="120.5" cy="41.5" r="1.5" fill="#C4C4C4"/>
<circle cx="120.5" cy="49.5" r="1.5" fill="#C4C4C4"/>
<circle cx="120.5" cy="57.5" r="1.5" fill="#C4C4C4"/>
<circle cx="120.5" cy="65.5" r="1.5" fill="#C4C4C4"/>
<circle cx="120.5" cy="73.5" r="1.5" fill="#C4C4C4"/>
<circle cx="120.5" cy="81.5" r="1.5" fill="#C4C4C4"/>
<circle cx="120.5" cy="89.5" r="1.5" fill="#C4C4C4"/>
<circle cx="120.5" cy="97.5" r="1.5" fill="#C4C4C4"/>
<circle cx="120.5" cy="105.5" r="1.5" fill="#C4C4C4"/>
<circle cx="120.5" cy="113.5" r="1.5" fill="#C4C4C4"/>
<circle cx="127.5" cy="1.5" r="1.5" fill="#C4C4C4"/>
<circle cx="127.5" cy="9.5" r="1.5" fill="#C4C4C4"/>
<circle cx="127.5" cy="17.5" r="1.5" fill="#C4C4C4"/>
<circle cx="127.5" cy="25.5" r="1.5" fill="#C4C4C4"/>
<circle cx="127.5" cy="33.5" r="1.5" fill="#C4C4C4"/>
<circle cx="127.5" cy="41.5" r="1.5" fill="#C4C4C4"/>
<circle cx="127.5" cy="49.5" r="1.5" fill="#C4C4C4"/>
<circle cx="127.5" cy="57.5" r="1.5" fill="#C4C4C4"/>
<circle cx="127.5" cy="65.5" r="1.5" fill="#C4C4C4"/>
<circle cx="127.5" cy="73.5" r="1.5" fill="#C4C4C4"/>
<circle cx="127.5" cy="81.5" r="1.5" fill="#C4C4C4"/>
<circle cx="127.5" cy="89.5" r="1.5" fill="#C4C4C4"/>
<circle cx="127.5" cy="97.5" r="1.5" fill="#C4C4C4"/>
<circle cx="127.5" cy="105.5" r="1.5" fill="#C4C4C4"/>
<circle cx="127.5" cy="113.5" r="1.5" fill="#C4C4C4"/>
<circle cx="134.5" cy="1.5" r="1.5" fill="#C4C4C4"/>
<circle cx="134.5" cy="9.5" r="1.5" fill="#C4C4C4"/>
<circle cx="134.5" cy="17.5" r="1.5" fill="#C4C4C4"/>
<circle cx="134.5" cy="25.5" r="1.5" fill="#C4C4C4"/>
<circle cx="134.5" cy="33.5" r="1.5" fill="#C4C4C4"/>
<circle cx="134.5" cy="41.5" r="1.5" fill="#C4C4C4"/>
<circle cx="134.5" cy="49.5" r="1.5" fill="#C4C4C4"/>
<circle cx="134.5" cy="57.5" r="1.5" fill="#C4C4C4"/>
<circle cx="134.5" cy="65.5" r="1.5" fill="#C4C4C4"/>
<circle cx="134.5" cy="73.5" r="1.5" fill="#C4C4C4"/>
<circle cx="134.5" cy="81.5" r="1.5" fill="#C4C4C4"/>
<circle cx="134.5" cy="89.5" r="1.5" fill="#C4C4C4"/>
<circle cx="134.5" cy="97.5" r="1.5" fill="#C4C4C4"/>
<circle cx="134.5" cy="105.5" r="1.5" fill="#C4C4C4"/>
<circle cx="134.5" cy="113.5" r="1.5" fill="#C4C4C4"/>
<circle cx="141.5" cy="1.5" r="1.5" fill="#C4C4C4"/>
<circle cx="141.5" cy="9.5" r="1.5" fill="#C4C4C4"/>
<circle cx="141.5" cy="17.5" r="1.5" fill="#C4C4C4"/>
<circle cx="141.5" cy="25.5" r="1.5" fill="#C4C4C4"/>
<circle cx="141.5" cy="33.5" r="1.5" fill="#C4C4C4"/>
<circle cx="141.5" cy="41.5" r="1.5" fill="#C4C4C4"/>
<circle cx="141.5" cy="49.5" r="1.5" fill="#C4C4C4"/>
<circle cx="141.5" cy="57.5" r="1.5" fill="#C4C4C4"/>
<circle cx="141.5" cy="65.5" r="1.5" fill="#C4C4C4"/>
<circle cx="141.5" cy="73.5" r="1.5" fill="#C4C4C4"/>
<circle cx="141.5" cy="81.5" r="1.5" fill="#C4C4C4"/>
<circle cx="141.5" cy="89.5" r="1.5" fill="#C4C4C4"/>
<circle cx="141.5" cy="97.5" r="1.5" fill="#C4C4C4"/>
<circle cx="141.5" cy="105.5" r="1.5" fill="#C4C4C4"/>
<circle cx="141.5" cy="113.5" r="1.5" fill="#C4C4C4"/>
<circle cx="148.5" cy="1.5" r="1.5" fill="#C4C4C4"/>
<circle cx="148.5" cy="9.5" r="1.5" fill="#C4C4C4"/>
<circle cx="148.5" cy="17.5" r="1.5" fill="#C4C4C4"/>
<circle cx="148.5" cy="25.5" r="1.5" fill="#C4C4C4"/>
<circle cx="148.5" cy="33.5" r="1.5" fill="#C4C4C4"/>
<circle cx="148.5" cy="41.5" r="1.5" fill="#C4C4C4"/>
<circle cx="148.5" cy="49.5" r="1.5" fill="#C4C4C4"/>
<circle cx="148.5" cy="57.5" r="1.5" fill="#C4C4C4"/>
<circle cx="148.5" cy="65.5" r="1.5" fill="#C4C4C4"/>
<circle cx="148.5" cy="73.5" r="1.5" fill="#C4C4C4"/>
<circle cx="148.5" cy="81.5" r="1.5" fill="#C4C4C4"/>
<circle cx="148.5" cy="89.5" r="1.5" fill="#C4C4C4"/>
<circle cx="148.5" cy="97.5" r="1.5" fill="#C4C4C4"/>
<circle cx="148.5" cy="105.5" r="1.5" fill="#C4C4C4"/>
<circle cx="148.5" cy="113.5" r="1.5" fill="#C4C4C4"/>
<circle cx="155.5" cy="1.5" r="1.5" fill="#C4C4C4"/>
<circle cx="155.5" cy="9.5" r="1.5" fill="#C4C4C4"/>
<circle cx="155.5" cy="17.5" r="1.5" fill="#C4C4C4"/>
<circle cx="155.5" cy="25.5" r="1.5" fill="#C4C4C4"/>
<circle cx="155.5" cy="33.5" r="1.5" fill="#C4C4C4"/>
<circle cx="155.5" cy="41.5" r="1.5" fill="#C4C4C4"/>
<circle cx="155.5" cy="49.5" r="1.5" fill="#C4C4C4"/>
<circle cx="155.5" cy="57.5" r="1.5" fill="#C4C4C4"/>
<circle cx="155.5" cy="65.5" r="1.5" fill="#C4C4C4"/>
<circle cx="155.5" cy="73.5" r="1.5" fill="#C4C4C4"/>
<circle cx="155.5" cy="81.5" r="1.5" fill="#C4C4C4"/>
<circle cx="155.5" cy="89.5" r="1.5" fill="#C4C4C4"/>
<circle cx="155.5" cy="97.5" r="1.5" fill="#C4C4C4"/>
<circle cx="155.5" cy="105.5" r="1.5" fill="#C4C4C4"/>
<circle cx="155.5" cy="113.5" r="1.5" fill="#C4C4C4"/>
<circle cx="162.5" cy="1.5" r="1.5" fill="#C4C4C4"/>
<circle cx="162.5" cy="9.5" r="1.5" fill="#C4C4C4"/>
<circle cx="162.5" cy="17.5" r="1.5" fill="#C4C4C4"/>
<circle cx="162.5" cy="25.5" r="1.5" fill="#C4C4C4"/>
<circle cx="162.5" cy="33.5" r="1.5" fill="#C4C4C4"/>
<circle cx="162.5" cy="41.5" r="1.5" fill="#C4C4C4"/>
<circle cx="162.5" cy="49.5" r="1.5" fill="#C4C4C4"/>
<circle cx="162.5" cy="57.5" r="1.5" fill="#C4C4C4"/>
<circle cx="162.5" cy="65.5" r="1.5" fill="#C4C4C4"/>
<circle cx="162.5" cy="73.5" r="1.5" fill="#C4C4C4"/>
<circle cx="162.5" cy="81.5" r="1.5" fill="#C4C4C4"/>
<circle cx="162.5" cy="89.5" r="1.5" fill="#C4C4C4"/>
<circle cx="162.5" cy="97.5" r="1.5" fill="#C4C4C4"/>
<circle cx="162.5" cy="105.5" r="1.5" fill="#C4C4C4"/>
<circle cx="162.5" cy="113.5" r="1.5" fill="#C4C4C4"/>
<circle cx="169.5" cy="1.5" r="1.5" fill="#C4C4C4"/>
<circle cx="169.5" cy="9.5" r="1.5" fill="#C4C4C4"/>
<circle cx="169.5" cy="17.5" r="1.5" fill="#C4C4C4"/>
<circle cx="169.5" cy="25.5" r="1.5" fill="#C4C4C4"/>
<circle cx="169.5" cy="33.5" r="1.5" fill="#C4C4C4"/>
<circle cx="169.5" cy="41.5" r="1.5" fill="#C4C4C4"/>
<circle cx="169.5" cy="49.5" r="1.5" fill="#C4C4C4"/>
<circle cx="169.5" cy="57.5" r="1.5" fill="#C4C4C4"/>
<circle cx="169.5" cy="65.5" r="1.5" fill="#C4C4C4"/>
<circle cx="169.5" cy="73.5" r="1.5" fill="#C4C4C4"/>
<circle cx="169.5" cy="81.5" r="1.5" fill="#C4C4C4"/>
<circle cx="169.5" cy="89.5" r="1.5" fill="#C4C4C4"/>
<circle cx="169.5" cy="97.5" r="1.5" fill="#C4C4C4"/>
<circle cx="169.5" cy="105.5" r="1.5" fill="#C4C4C4"/>
<circle cx="169.5" cy="113.5" r="1.5" fill="#C4C4C4"/>
</svg>
