<svg width="115" height="42" viewBox="0 0 115 42" fill="none" xmlns="http://www.w3.org/2000/svg">
<path d="M53.5 8.75C53.5 11.3127 51.1024 13.5 48 13.5C44.8976 13.5 42.5 11.3127 42.5 8.75C42.5 6.18727 44.8976 4 48 4C51.1024 4 53.5 6.18727 53.5 8.75Z" stroke="black"/>
<path d="M5.08008 18.9805C4.86914 18.9805 4.71094 18.9219 4.60547 18.8047C4.51172 18.6875 4.46484 18.5586 4.46484 18.418C4.46484 18.2773 4.51172 18.1484 4.60547 18.0312C4.71094 17.9141 4.86914 17.8555 5.08008 17.8555H7.57617C8.70117 17.8555 9.63281 17.7441 10.3711 17.5215C11.1211 17.2988 11.7188 17.0117 12.1641 16.6602C12.6094 16.2969 12.9199 15.8867 13.0957 15.4297C13.2832 14.9727 13.377 14.5098 13.377 14.041C13.377 13.5957 13.3066 13.1504 13.166 12.7051C13.0371 12.248 12.7793 11.8438 12.3926 11.4922C12.0059 11.1289 11.4609 10.8359 10.7578 10.6133C10.0547 10.3906 9.13477 10.2793 7.99805 10.2793C7.35352 10.2793 6.71484 10.3262 6.08203 10.4199C5.44922 10.502 4.88086 10.5957 4.37695 10.7012C3.87305 10.8066 3.46289 10.9063 3.14648 11C2.8418 11.082 2.68945 11.1289 2.68945 11.1406C2.47852 11.1992 2.32617 11.2285 2.23242 11.2285C2.0332 11.2285 1.875 11.1875 1.75781 11.1055C1.65234 11.0117 1.59961 10.9004 1.59961 10.7715C1.59961 10.5488 1.79883 10.332 2.19727 10.1211C2.60742 9.91016 3.11719 9.72852 3.72656 9.57617C4.34766 9.41211 5.02148 9.2832 5.74805 9.18945C6.47461 9.0957 7.16602 9.04883 7.82227 9.04883C9.22852 9.04883 10.3711 9.19531 11.25 9.48828C12.1289 9.78125 12.8203 10.168 13.3242 10.6484C13.8281 11.1172 14.168 11.6504 14.3438 12.248C14.5312 12.8457 14.625 13.4492 14.625 14.0586C14.625 14.4688 14.5547 14.9082 14.4141 15.377C14.2734 15.834 14.0215 16.2734 13.6582 16.6953C13.3066 17.1055 12.8262 17.4688 12.2168 17.7852C11.6191 18.0898 10.8574 18.2891 9.93164 18.3828C10.8691 18.5117 11.666 18.7285 12.3223 19.0332C12.9785 19.3262 13.5117 19.7012 13.9219 20.1582C14.332 20.6035 14.6309 21.1191 14.8184 21.7051C15.0059 22.2793 15.0996 22.9121 15.0996 23.6035C15.0996 24.4121 14.9766 25.168 14.7305 25.8711C14.4961 26.5742 14.0977 27.1895 13.5352 27.7168C12.9727 28.2324 12.2227 28.6367 11.2852 28.9297C10.3594 29.2227 9.20508 29.3691 7.82227 29.3691C7.13086 29.3691 6.41602 29.3164 5.67773 29.2109C4.93945 29.1172 4.26562 28.9941 3.65625 28.8418C3.05859 28.6777 2.56641 28.4902 2.17969 28.2793C1.79297 28.0684 1.59961 27.8574 1.59961 27.6465C1.59961 27.5176 1.65234 27.4121 1.75781 27.3301C1.875 27.2363 2.0332 27.1895 2.23242 27.1895C2.34961 27.1895 2.49023 27.2129 2.6543 27.2598C2.81836 27.2949 2.99414 27.3418 3.18164 27.4004C3.36914 27.459 3.55664 27.5176 3.74414 27.5762C3.94336 27.6348 4.13086 27.6816 4.30664 27.7168C4.79883 27.8223 5.34375 27.9219 5.94141 28.0156C6.55078 28.1094 7.17773 28.1562 7.82227 28.1562C9.0293 28.1562 10.0254 28.0449 10.8105 27.8223C11.6074 27.5879 12.2344 27.2656 12.6914 26.8555C13.1602 26.4453 13.4824 25.959 13.6582 25.3965C13.8457 24.8223 13.9395 24.1895 13.9395 23.498C13.9395 22.9121 13.8398 22.3496 13.6406 21.8105C13.4531 21.2598 13.1191 20.7793 12.6387 20.3691C12.1582 19.9473 11.5078 19.6133 10.6875 19.3672C9.86719 19.1094 8.83008 18.9805 7.57617 18.9805H5.08008ZM41.7129 23.5332C41.7129 24.2832 41.5781 24.9512 41.3086 25.5371C41.0391 26.1113 40.6641 26.6152 40.1836 27.0488C39.7031 27.4707 39.1289 27.834 38.4609 28.1387C37.8047 28.4316 37.0898 28.6719 36.3164 28.8594C35.543 29.0352 34.7168 29.1582 33.8379 29.2285C32.9707 29.3105 32.0918 29.3516 31.2012 29.3516C29.9473 29.3516 28.6992 29.2871 27.457 29.1582C26.2148 29.0293 25.0547 28.8711 23.9766 28.6836C22.8984 28.4844 21.9434 28.2734 21.1113 28.0508C20.291 27.8281 19.6699 27.6172 19.248 27.418C19.084 27.3359 18.9609 27.2363 18.8789 27.1191C18.8086 26.9902 18.7734 26.8613 18.7734 26.7324C18.7734 26.5918 18.8086 26.4746 18.8789 26.3809C18.9609 26.2754 19.0781 26.2227 19.2305 26.2227C19.3008 26.2227 19.3828 26.2402 19.4766 26.2754C19.9336 26.4629 20.5898 26.668 21.4453 26.8906C22.3008 27.1133 23.2676 27.3242 24.3457 27.5234C25.4355 27.7109 26.5898 27.8691 27.8086 27.998C29.0391 28.127 30.2578 28.1914 31.4648 28.1914C32.6367 28.1914 33.75 28.1152 34.8047 27.9629C35.8594 27.8105 36.7852 27.5527 37.582 27.1895C38.3906 26.8262 39.0293 26.3457 39.498 25.748C39.9785 25.1504 40.2188 24.4121 40.2188 23.5332C40.2188 22.7949 40.0137 22.1914 39.6035 21.7227C39.2051 21.2422 38.6602 20.8613 37.9688 20.5801C37.2773 20.2871 36.4688 20.0703 35.543 19.9297C34.6172 19.7773 33.6328 19.666 32.5898 19.5957C31.5586 19.5137 30.4922 19.4551 29.3906 19.4199C28.2891 19.373 27.2168 19.3027 26.1738 19.209C25.1426 19.1152 24.1641 18.9805 23.2383 18.8047C22.3125 18.6289 21.5039 18.3711 20.8125 18.0312C20.1211 17.6914 19.5703 17.252 19.1602 16.7129C18.7617 16.1738 18.5625 15.4941 18.5625 14.6738C18.5625 13.9238 18.7031 13.2617 18.9844 12.6875C19.2656 12.1133 19.6523 11.6211 20.1445 11.2109C20.6367 10.7891 21.2168 10.4434 21.8848 10.1738C22.5645 9.89258 23.2969 9.66992 24.082 9.50586C24.8789 9.3418 25.7109 9.22461 26.5781 9.1543C27.457 9.08398 28.3359 9.04883 29.2148 9.04883C30.3047 9.04883 31.377 9.10156 32.4316 9.20703C33.4863 9.30078 34.4766 9.43555 35.4023 9.61133C36.3281 9.77539 37.1602 9.96289 37.8984 10.1738C38.6367 10.373 39.2285 10.5781 39.6738 10.7891C39.7676 10.8359 39.8379 10.9063 39.8848 11C39.9316 11.082 39.9551 11.1699 39.9551 11.2637C39.9551 11.4277 39.8965 11.5801 39.7793 11.7207C39.6738 11.8613 39.5215 11.9316 39.3223 11.9316C39.2051 11.9316 39.1055 11.9082 39.0234 11.8613C38.4023 11.6035 37.7109 11.375 36.9492 11.1758C36.1992 10.9648 35.4023 10.7891 34.5586 10.6484C33.7148 10.5078 32.8418 10.4023 31.9395 10.332C31.0488 10.25 30.1641 10.209 29.2852 10.209C28.0664 10.209 26.9004 10.2793 25.7871 10.4199C24.6738 10.5605 23.6895 10.8008 22.834 11.1406C21.9902 11.4688 21.3164 11.9141 20.8125 12.4766C20.3086 13.0273 20.0566 13.7246 20.0566 14.5684C20.0566 15.2129 20.2559 15.7402 20.6543 16.1504C21.0645 16.5488 21.6152 16.8711 22.3066 17.1172C22.998 17.3633 23.8066 17.5508 24.7324 17.6797C25.6582 17.7969 26.6367 17.8906 27.668 17.9609C28.7109 18.0312 29.7832 18.0957 30.8848 18.1543C31.9863 18.2012 33.0527 18.2891 34.084 18.418C35.127 18.5352 36.1113 18.7051 37.0371 18.9277C37.9629 19.1387 38.7715 19.4375 39.4629 19.8242C40.1543 20.2109 40.6992 20.709 41.0977 21.3184C41.5078 21.916 41.7129 22.6543 41.7129 23.5332ZM48.1289 27.8926C48.1289 28.0449 48.123 28.1914 48.1113 28.332C48.0996 28.4609 48.0703 28.5781 48.0234 28.6836C47.9883 28.7773 47.9238 28.8535 47.8301 28.9121C47.7363 28.9707 47.6016 29 47.4258 29C47.0977 29 46.8984 28.9004 46.8281 28.7012C46.7578 28.502 46.7227 28.2324 46.7227 27.8926V16.6074C46.7227 16.3145 46.7637 16.0625 46.8457 15.8516C46.9277 15.6406 47.1328 15.5352 47.4609 15.5352C47.7539 15.5352 47.9355 15.6406 48.0059 15.8516C48.0879 16.0625 48.1289 16.3027 48.1289 16.5723V27.8926ZM46.4941 11.5625C46.4941 11.293 46.582 11.0703 46.7578 10.8945C46.9336 10.707 47.1562 10.6133 47.4258 10.6133C47.6953 10.6133 47.9238 10.707 48.1113 10.8945C48.2988 11.0703 48.3926 11.293 48.3926 11.5625C48.3926 11.832 48.2988 12.0488 48.1113 12.2129C47.9238 12.377 47.6953 12.459 47.4258 12.459C47.1562 12.459 46.9336 12.377 46.7578 12.2129C46.582 12.0488 46.4941 11.832 46.4941 11.5625ZM68.2559 27.7695C68.5137 28.0156 68.6426 28.2676 68.6426 28.5254C68.6426 28.877 68.4551 29.0527 68.0801 29.0527C67.8809 29.0527 67.6465 28.9355 67.377 28.7012L61.207 23.0762L55.0371 28.7012C54.8848 28.8301 54.75 28.9238 54.6328 28.9824C54.5273 29.0293 54.416 29.0527 54.2988 29.0527C53.9355 29.0527 53.7539 28.8711 53.7539 28.5078C53.7539 28.2734 53.8887 28.0273 54.1582 27.7695L60.2578 22.1973L54.0879 16.7305C53.8535 16.5312 53.7363 16.3145 53.7363 16.0801C53.7363 15.9277 53.7891 15.7988 53.8945 15.6934C54.0117 15.5879 54.1523 15.5352 54.3164 15.5352C54.5508 15.5352 54.791 15.6406 55.0371 15.8516L61.207 21.3359L67.377 15.8516C67.5996 15.6406 67.834 15.5352 68.0801 15.5352C68.2441 15.5352 68.3789 15.5879 68.4844 15.6934C68.6016 15.7871 68.6602 15.916 68.6602 16.0801C68.6602 16.3027 68.5488 16.5195 68.3262 16.7305L62.1562 22.1973L68.2559 27.7695ZM81.7207 15.7988C81.8965 15.7988 82.0254 15.8457 82.1074 15.9395C82.2012 16.0215 82.248 16.1152 82.248 16.2207C82.248 16.3262 82.2012 16.4258 82.1074 16.5195C82.0254 16.6016 81.8965 16.6426 81.7207 16.6426H75.8848V24.0957C75.8848 24.9512 75.9727 25.6426 76.1484 26.1699C76.3242 26.6973 76.5586 27.1074 76.8516 27.4004C77.1562 27.6934 77.5078 27.8926 77.9062 27.998C78.3164 28.0918 78.75 28.1387 79.207 28.1387C79.7695 28.1387 80.3203 28.0391 80.8594 27.8398C81.3984 27.6406 82.0195 27.3535 82.7227 26.9785C82.8633 26.9082 82.998 26.873 83.127 26.873C83.2793 26.873 83.3965 26.9199 83.4785 27.0137C83.5723 27.0957 83.6191 27.2012 83.6191 27.3301C83.6191 27.5645 83.4902 27.752 83.2324 27.8926C82.7402 28.1621 82.3008 28.3789 81.9141 28.543C81.5391 28.707 81.1875 28.8359 80.8594 28.9297C80.543 29.0234 80.2324 29.0879 79.9277 29.123C79.623 29.1582 79.3008 29.1758 78.9609 29.1758C78.3281 29.1758 77.7363 29.0879 77.1855 28.9121C76.6465 28.7363 76.1719 28.4551 75.7617 28.0684C75.3633 27.6699 75.0469 27.1484 74.8125 26.5039C74.5898 25.8477 74.4785 25.0449 74.4785 24.0957V16.6426H72.9316C72.7676 16.6426 72.6445 16.6016 72.5625 16.5195C72.4805 16.4258 72.4395 16.3262 72.4395 16.2207C72.4395 16.1152 72.4805 16.0215 72.5625 15.9395C72.6445 15.8457 72.7676 15.7988 72.9316 15.7988H74.4785V11.4219C74.4785 11.0469 74.5547 10.8125 74.707 10.7188C74.8594 10.6133 75.0176 10.5605 75.1816 10.5605C75.3809 10.5605 75.5449 10.6133 75.6738 10.7188C75.8145 10.8125 75.8848 11.0469 75.8848 11.4219V15.7988H81.7207ZM94.0957 33.834C95.3027 33.834 96.3105 33.6992 97.1191 33.4297C97.9277 33.1719 98.5723 32.7383 99.0527 32.1289C99.5449 31.5312 99.8906 30.7285 100.09 29.7207C100.301 28.7246 100.406 27.4883 100.406 26.0117C100.277 26.4922 100.066 26.9023 99.7734 27.2422C99.4805 27.582 99.1289 27.8691 98.7188 28.1035C98.3203 28.3379 97.8809 28.5254 97.4004 28.666C96.9316 28.8066 96.4512 28.918 95.959 29C95.4668 29.0703 94.9805 29.1172 94.5 29.1406C94.0312 29.1641 93.5977 29.1758 93.1992 29.1758C91.9336 29.1758 90.8672 29.0645 90 28.8418C89.1328 28.6074 88.4297 28.2207 87.8906 27.6816C87.3516 27.1309 86.959 26.4102 86.7129 25.5195C86.4785 24.6289 86.3613 23.5215 86.3613 22.1973V16.8008C86.3613 16.6484 86.3672 16.4961 86.3789 16.3438C86.3906 16.1914 86.4199 16.0566 86.4668 15.9395C86.5137 15.8223 86.5781 15.7285 86.6602 15.6582C86.7539 15.5762 86.8828 15.5352 87.0469 15.5352C87.2227 15.5352 87.3574 15.5762 87.4512 15.6582C87.5449 15.7285 87.6152 15.8223 87.6621 15.9395C87.709 16.0566 87.7383 16.1914 87.75 16.3438C87.7617 16.4961 87.7676 16.6484 87.7676 16.8008V22.1973C87.7676 23.3457 87.8379 24.3008 87.9785 25.0625C88.1309 25.8242 88.4062 26.4336 88.8047 26.8906C89.2031 27.3477 89.7539 27.6699 90.457 27.8574C91.1719 28.0449 92.0859 28.1387 93.1992 28.1387C93.8672 28.1387 94.582 28.0918 95.3438 27.998C96.1055 27.9043 96.8262 27.7344 97.5059 27.4883C98.1973 27.2422 98.8008 26.9023 99.3164 26.4688C99.8438 26.0352 100.207 25.4727 100.406 24.7812V16.8008C100.406 16.6484 100.412 16.4961 100.424 16.3438C100.447 16.1914 100.482 16.0566 100.529 15.9395C100.576 15.8223 100.641 15.7285 100.723 15.6582C100.816 15.5762 100.934 15.5352 101.074 15.5352C101.25 15.5352 101.385 15.5762 101.479 15.6582C101.572 15.7285 101.643 15.8223 101.689 15.9395C101.748 16.0566 101.783 16.1914 101.795 16.3438C101.807 16.4961 101.812 16.6484 101.812 16.8008V25.4316C101.812 27.2363 101.666 28.7422 101.373 29.9492C101.092 31.1562 100.641 32.123 100.02 32.8496C99.3984 33.5879 98.6016 34.1094 97.6289 34.4141C96.6562 34.7188 95.4785 34.8711 94.0957 34.8711C93.1113 34.8711 92.2793 34.8184 91.5996 34.7129C90.9316 34.6074 90.3633 34.4727 89.8945 34.3086C89.4375 34.1562 89.0566 33.9805 88.752 33.7812C88.4473 33.582 88.1836 33.3945 87.9609 33.2188C87.8672 33.125 87.8203 33.0137 87.8203 32.8848C87.8203 32.7207 87.8613 32.5801 87.9434 32.4629C88.0371 32.3574 88.1777 32.3047 88.3652 32.3047C88.459 32.3047 88.5586 32.3398 88.6641 32.4102C88.8867 32.5742 89.1445 32.7383 89.4375 32.9023C89.7422 33.0781 90.1055 33.2305 90.5273 33.3594C90.9609 33.5 91.4648 33.6113 92.0391 33.6934C92.625 33.7871 93.3105 33.834 94.0957 33.834Z" fill="black"/>
</svg>
